# xmcd
#
# Track frame offsets:
#	150
#	20354
#	36031
#	52101
#	77567
#	95929
#	115226
#	131196
#	150094
#	167404
#	182249
#	200211
#	219185
#	233963
#	248082
#	264675
#
# Disc length: 3708 seconds
#
# Revision: 0
# Processed by: cddbd v1.5.2PL0 Copyright (c) Steve Scherf et al.
# Submitted via: audiograbber 1.83.01
#
DISCID=db0e7a10
DTITLE=Chartbuster - ESP490-06
DYEAR=2007
DGENRE=Karaoke
TTITLE0=Kenny Chesney - flop Summer
TTITLE1=Emerson Drive - You Still Own Me
TTITLE2=Jennifer Hanson - Joyride
TTITLE3=Keith Urban - Everybody
TTITLE4=Big and Rich - Between Raising Hell And Amazing Grace 
TTITLE5=Tim McGraw - If You're Reading This
TTITLE6=Taylor Swift - Our Song
TTITLE7=Little Big Town - A Little More You
TTITLE8=Gary Allan - Watching Airplanes
TTITLE9=Joe Nichols - Another Side Of You
TTITLE10=The Wreckers - The Good Kind
TTITLE11=Billy Currington - Tangled Up
TTITLE12=Bucky Covington - It's Good To Be Us
TTITLE13=Danielle Peck - Bad For Me
TTITLE14=Kenny Chesney - Never Wanted Nothing More
TTITLE15=Mark Chestnutt - Rollin' With The Flow
EXTD=
EXTT0=
EXTT1=
EXTT2=
EXTT3=
EXTT4=
EXTT5=
EXTT6=
EXTT7=
EXTT8=
EXTT9=
EXTT10=
EXTT11=
EXTT12=
EXTT13=
EXTT14=
EXTT15=
PLAYORDER=
